<?xml version="1.0" encoding="UTF-8"?><svg id="a" xmlns="http://www.w3.org/2000/svg" viewBox="0 0 735.89 291.53"><defs><style>.b{fill:#fff;}</style></defs><path class="b" d="M184.08,90.89c1.31-5.43,2.03-11.08,2.03-16.9C186.11,33.13,151.84,0,109.57,0S33.04,33.13,33.04,73.99c0,6.46.86,12.72,2.47,18.69C14.76,101.05,0,122.51,0,147.68c0,32.45,24.53,58.75,54.79,58.75,2.66,0,5.26-.21,7.82-.6l-27.89-25.73c-2.64-2.43-2.8-6.55-.37-9.18,2.43-2.64,6.55-2.8,9.18-.37l33.45,30.85c10.72-5.1,19.62-13.78,25.4-24.62l.28-78.25c.01-4.13,3.37-7.47,7.5-7.47h.03c4.14.01,7.49,3.38,7.47,7.53l-.22,60.97c1.27,6.82,3.63,13.22,6.9,18.96l58.12-52.68c2.66-2.41,6.77-2.21,9.18.45,2.41,2.66,2.21,6.77-.45,9.18l-59.17,53.63c9.94,10.89,23.8,17.65,39.14,17.65,30.26,0,54.79-26.3,54.79-58.75,0-27.67-17.85-50.86-41.87-57.09Z"/><path class="b" d="M117.35,184.83l.09-25.3c-.7-3.74-1.07-7.6-1.07-11.55,0-.1,0-.2,0-.31-2.24.19-4.51.31-6.8.31,0,0,0,0,0,0-.05,10.47-2.67,20.29-7.19,28.79l-.17,47.9-25.23-23.28c-4.5,2.14-9.32,3.66-14.37,4.43l35.17,32.44c1.24,1.15,2.81,1.71,4.38,1.72l-.14,39.08c-.01,4.14,3.33,7.51,7.47,7.53,0,0,.02,0,.03,0,4.13,0,7.48-3.34,7.5-7.47l.27-76.68,14.74-13.36c-2.92-3.19-5.51-6.74-7.69-10.58l-6.99,6.33Z"/><path class="b" d="M266.84,200.51V45.57h-64.38v-20.73h154.88v20.73h-64.65v154.94h-25.86Z"/><path class="b" d="M370.41,200.51v-127.26h21.59v19.29c5.51-9.03,10.6-14.98,15.26-17.86,4.67-2.88,9.8-4.31,15.4-4.31,8.08,0,16.3,2.32,24.66,6.95l-8.26,20.01c-5.87-3.12-11.73-4.67-17.6-4.67-5.24,0-9.95,1.42-14.13,4.25-4.18,2.84-7.15,6.77-8.93,11.8-2.67,7.67-4,16.06-4,25.17v66.63h-23.99Z"/><path class="b" d="M558.48,159.53l24.79,2.76c-3.91,13.02-11.15,23.13-21.73,30.32-10.58,7.19-24.08,10.79-40.52,10.79-20.71,0-37.12-5.73-49.25-17.2-12.13-11.46-18.19-27.54-18.19-48.23s6.13-38.03,18.39-49.85c12.26-11.82,28.17-17.74,47.72-17.74s34.39,5.79,46.38,17.38c12,11.58,17.99,27.88,17.99,48.89,0,1.28-.05,3.2-.13,5.75h-105.57c.89,13.98,5.29,24.69,13.2,32.12,7.91,7.43,17.77,11.14,29.59,11.14,8.8,0,16.31-2.08,22.53-6.23,6.22-4.15,11.15-10.78,14.79-19.89ZM479.7,124.66h79.04c-1.07-10.7-4.09-18.73-9.06-24.09-7.64-8.31-17.55-12.46-29.72-12.46-11.02,0-20.28,3.32-27.79,9.95-7.51,6.63-11.66,15.5-12.46,26.6Z"/><path class="b" d="M710.3,159.53l24.79,2.76c-3.91,13.02-11.15,23.13-21.73,30.32-10.58,7.19-24.08,10.79-40.52,10.79-20.71,0-37.12-5.73-49.25-17.2-12.13-11.46-18.19-27.54-18.19-48.23s6.13-38.03,18.39-49.85c12.26-11.82,28.17-17.74,47.72-17.74s34.39,5.79,46.38,17.38c12,11.58,17.99,27.88,17.99,48.89,0,1.28-.05,3.2-.13,5.75h-105.57c.89,13.98,5.29,24.69,13.2,32.12,7.91,7.43,17.77,11.14,29.59,11.14,8.8,0,16.31-2.08,22.53-6.23,6.22-4.15,11.15-10.78,14.79-19.89ZM631.52,124.66h79.04c-1.07-10.7-4.09-18.73-9.06-24.09-7.64-8.31-17.55-12.46-29.72-12.46-11.02,0-20.28,3.32-27.79,9.95-7.51,6.63-11.66,15.5-12.46,26.6Z"/><path class="b" d="M257.38,273.17v-62.46h22.88c4.03,0,7.1.2,9.23.6,2.98.51,5.48,1.48,7.49,2.92,2.01,1.43,3.63,3.44,4.86,6.03,1.23,2.58,1.84,5.43,1.84,8.52,0,5.31-1.64,9.81-4.92,13.48-3.28,3.68-9.21,5.52-17.79,5.52h-15.56v25.39h-8.03ZM265.41,240.4h15.68c5.19,0,8.87-.99,11.05-2.98,2.18-1.99,3.27-4.79,3.27-8.39,0-2.61-.64-4.85-1.92-6.71-1.28-1.86-2.97-3.09-5.07-3.69-1.35-.37-3.85-.55-7.49-.55h-15.52v22.33Z"/><path class="b" d="M312.96,273.17v-62.46h7.45v22.41c3.48-4.15,7.86-6.22,13.16-6.22,3.25,0,6.08.66,8.48,1.98,2.4,1.32,4.12,3.15,5.15,5.47,1.03,2.33,1.55,5.71,1.55,10.14v28.67h-7.45v-28.67c0-3.83-.81-6.63-2.42-8.37-1.61-1.75-3.9-2.62-6.85-2.62-2.21,0-4.28.59-6.23,1.77-1.95,1.18-3.33,2.78-4.16,4.79-.83,2.02-1.24,4.8-1.24,8.35v24.75h-7.45Z"/><path class="b" d="M357.32,250.54c0-8.38,2.26-14.58,6.79-18.62,3.78-3.35,8.39-5.03,13.82-5.03,6.04,0,10.98,2.04,14.82,6.11,3.83,4.08,5.75,9.71,5.75,16.89,0,5.82-.85,10.4-2.54,13.74-1.7,3.34-4.17,5.93-7.41,7.78-3.24,1.85-6.78,2.77-10.62,2.77-6.15,0-11.12-2.03-14.92-6.09-3.79-4.06-5.69-9.91-5.69-17.55ZM364.97,250.54c0,5.79,1.23,10.13,3.68,13.02,2.46,2.88,5.55,4.32,9.27,4.32s6.77-1.45,9.23-4.35,3.68-7.31,3.68-13.25c0-5.6-1.24-9.83-3.7-12.72-2.47-2.88-5.54-4.32-9.21-4.32s-6.81,1.43-9.27,4.3c-2.46,2.87-3.68,7.2-3.68,12.99Z"/><path class="b" d="M423.49,266.31l1.08,6.77c-2.1.45-3.97.68-5.63.68-2.7,0-4.8-.44-6.29-1.32-1.49-.88-2.54-2.04-3.15-3.47s-.91-4.45-.91-9.05v-26.03h-5.46v-5.96h5.46v-11.21l7.41-4.6v15.81h7.49v5.96h-7.49v26.46c0,2.19.13,3.59.39,4.22.26.62.69,1.12,1.28,1.49.59.37,1.44.55,2.54.55.83,0,1.92-.1,3.27-.3Z"/><path class="b" d="M428,250.54c0-8.38,2.26-14.58,6.79-18.62,3.78-3.35,8.39-5.03,13.82-5.03,6.04,0,10.98,2.04,14.81,6.11,3.83,4.08,5.75,9.71,5.75,16.89,0,5.82-.85,10.4-2.54,13.74-1.7,3.34-4.17,5.93-7.41,7.78-3.24,1.85-6.78,2.77-10.61,2.77-6.15,0-11.13-2.03-14.92-6.09-3.79-4.06-5.69-9.91-5.69-17.55ZM435.66,250.54c0,5.79,1.23,10.13,3.68,13.02,2.46,2.88,5.55,4.32,9.27,4.32s6.77-1.45,9.23-4.35,3.68-7.31,3.68-13.25c0-5.6-1.24-9.83-3.7-12.72-2.47-2.88-5.54-4.32-9.21-4.32s-6.81,1.43-9.27,4.3c-2.46,2.87-3.68,7.2-3.68,12.99Z"/><path class="b" d="M476.54,276.92l7.24,1.11c.3,2.3,1.14,3.98,2.52,5.03,1.85,1.42,4.37,2.13,7.57,2.13,3.45,0,6.11-.71,7.99-2.13,1.88-1.42,3.15-3.41,3.81-5.96.39-1.56.57-4.84.54-9.84-3.26,3.95-7.31,5.92-12.17,5.92-6.04,0-10.72-2.24-14.03-6.73s-4.97-9.87-4.97-16.15c0-4.32.76-8.3,2.28-11.95,1.52-3.65,3.72-6.47,6.6-8.46,2.88-1.99,6.27-2.98,10.16-2.98,5.19,0,9.46,2.16,12.83,6.48v-5.45h6.87v39.11c0,7.04-.7,12.04-2.09,14.98-1.39,2.94-3.6,5.26-6.62,6.97-3.02,1.7-6.74,2.56-11.15,2.56-5.24,0-9.48-1.21-12.7-3.64-3.23-2.43-4.79-6.09-4.68-10.97ZM482.71,249.73c0,5.94,1.14,10.27,3.43,13s5.16,4.09,8.61,4.09,6.29-1.36,8.61-4.07c2.32-2.71,3.48-6.97,3.48-12.76s-1.19-9.71-3.58-12.53c-2.39-2.81-5.26-4.22-8.63-4.22s-6.12,1.38-8.44,4.15c-2.32,2.77-3.48,6.88-3.48,12.33Z"/><path class="b" d="M524.96,273.17v-45.25h6.7v6.86c1.71-3.21,3.29-5.33,4.74-6.35s3.04-1.53,4.78-1.53c2.51,0,5.06.82,7.66,2.47l-2.57,7.12c-1.82-1.11-3.64-1.66-5.46-1.66-1.63,0-3.09.5-4.39,1.51-1.3,1.01-2.22,2.41-2.77,4.2-.83,2.73-1.24,5.71-1.24,8.95v23.69h-7.45Z"/><path class="b" d="M581.94,267.59c-2.76,2.41-5.42,4.12-7.97,5.11-2.55.99-5.29,1.49-8.21,1.49-4.83,0-8.54-1.21-11.13-3.64-2.59-2.43-3.89-5.53-3.89-9.31,0-2.22.49-4.24,1.47-6.07s2.26-3.3,3.85-4.41c1.59-1.11,3.37-1.94,5.36-2.51,1.46-.4,3.67-.78,6.62-1.15,6.01-.74,10.44-1.62,13.28-2.64.03-1.05.04-1.72.04-2,0-3.12-.7-5.33-2.11-6.6-1.9-1.73-4.73-2.6-8.48-2.6-3.5,0-6.09.63-7.76,1.9-1.67,1.26-2.9,3.5-3.7,6.71l-7.28-1.02c.66-3.21,1.75-5.8,3.27-7.78,1.52-1.97,3.71-3.49,6.58-4.56,2.87-1.07,6.19-1.6,9.97-1.6s6.8.46,9.15,1.36c2.34.91,4.07,2.05,5.17,3.43,1.1,1.38,1.88,3.12,2.32,5.22.25,1.31.37,3.66.37,7.07v10.23c0,7.13.16,11.64.48,13.53.32,1.89.94,3.7,1.88,5.43h-7.78c-.77-1.59-1.27-3.45-1.49-5.58ZM581.32,250.46c-2.7,1.14-6.76,2.1-12.17,2.9-3.06.45-5.23.97-6.5,1.53-1.27.57-2.25,1.4-2.94,2.49s-1.03,2.31-1.03,3.64c0,2.04.75,3.75,2.25,5.11s3.7,2.04,6.6,2.04,5.42-.65,7.66-1.94c2.23-1.29,3.88-3.06,4.92-5.3.8-1.73,1.2-4.29,1.2-7.67v-2.81Z"/><path class="b" d="M600.4,290.51v-62.59h6.79v5.88c1.6-2.3,3.41-4.03,5.42-5.18,2.01-1.15,4.46-1.73,7.32-1.73,3.75,0,7.06.99,9.93,2.98,2.87,1.99,5.03,4.79,6.5,8.42,1.46,3.62,2.19,7.59,2.19,11.91,0,4.63-.81,8.8-2.42,12.5s-3.96,6.55-7.04,8.52-6.31,2.96-9.7,2.96c-2.48,0-4.71-.54-6.68-1.62s-3.59-2.44-4.86-4.09v22.03h-7.45ZM607.14,250.8c0,5.82,1.14,10.13,3.43,12.91,2.29,2.78,5.06,4.18,8.32,4.18s6.14-1.44,8.5-4.32c2.36-2.88,3.54-7.35,3.54-13.4s-1.15-10.08-3.46-12.95c-2.3-2.87-5.06-4.3-8.26-4.3s-5.98,1.53-8.42,4.58c-2.44,3.05-3.66,7.49-3.66,13.31Z"/><path class="b" d="M647.53,273.17v-62.46h7.45v22.41c3.48-4.15,7.86-6.22,13.16-6.22,3.25,0,6.08.66,8.48,1.98s4.12,3.15,5.15,5.47c1.03,2.33,1.55,5.71,1.55,10.14v28.67h-7.45v-28.67c0-3.83-.81-6.63-2.42-8.37-1.61-1.75-3.9-2.62-6.85-2.62-2.21,0-4.28.59-6.23,1.77-1.94,1.18-3.33,2.78-4.16,4.79-.83,2.02-1.24,4.8-1.24,8.35v24.75h-7.45Z"/><path class="b" d="M694.34,290.59l-.83-7.2c1.63.45,3.05.68,4.26.68,1.66,0,2.98-.28,3.97-.85s1.81-1.36,2.44-2.39c.47-.77,1.23-2.67,2.28-5.71.14-.43.36-1.05.66-1.88l-16.68-45.33h8.03l9.15,26.2c1.19,3.32,2.25,6.82,3.19,10.48.86-3.52,1.88-6.96,3.06-10.31l9.39-26.37h7.45l-16.72,46.01c-1.79,4.97-3.19,8.39-4.18,10.27-1.32,2.53-2.84,4.38-4.55,5.56-1.71,1.18-3.75,1.77-6.12,1.77-1.43,0-3.04-.31-4.8-.94Z"/></svg>